<?xml version="1.0" encoding="utf-8" ?>	<!-- Generator: Assembly 2.4 - http://assemblyapp.co -->	<svg version="1.1" xmlns="http://www.w3.org/2000/svg" xmlns:xlink="http://www.w3.org/1999/xlink" width="4096.00" height="2341.00" viewBox="0 0 4096.0 2341.0">		<g id="document" transform="scale(13.653333333333334 13.653333333333334) translate(150.0 85.71428571428571)">			<path d="M-65.5853,-19.1125 L-69.9137,3.27775 L-70.0206,3.27775 L-74.2956,-19.1125 L-83.3266,-19.1125 L-83.3266,18.2937 L-76.6469,18.2937 L-76.6469,-4.73787 L-76.54,-4.73787 L-72.265,18.2937 L-67.6694,18.2937 L-63.2874,-4.73787 L-63.2874,18.2937 L-56.6078,18.2937 L-56.6078,-19.1125 L-65.5853,-19.1125 Z " fill="#bc1012" fill-opacity="1.00" />			<path d="M-37.3168,18.2937 L-30.6372,18.2937 L-38.3322,-19.1125 L-45.0119,-19.1125 L-52.7068,18.2937 L-46.4013,18.2937 L-45.1188,9.5834 L-38.6528,9.5834 L-37.3168,18.2937 Z M-43.9966,4.18619 L-41.9124,-9.22668 L-41.7522,-9.22668 L-39.7215,4.18619 L-43.9966,4.18619 Z " fill="#000000" fill-opacity="1.00" />			<path d="M-4.66656,18.2937 L-11.7203,2.31588 C-8.51403,0.712757 -6.10937,-2.86755 -6.10937,-8.42506 C-6.10937,-14.41 -9.15528,-19.1125 -15.5678,-19.1125 L-26.7362,-19.1125 L-26.7362,18.2937 L-20.11,18.2937 L-20.11,3.22431 C-19.8427,3.22431 -18.8809,3.22431 -17.9725,3.22431 L-11.6134,18.2937 L-4.66656,18.2937 Z M-20.11,-13.7688 L-15.7816,-13.7688 C-13.1631,-13.7688 -12.4684,-11.4175 -12.4684,-8.42506 C-12.4684,-2.97444 -13.6441,-2.44006 -17.9725,-2.44006 L-20.11,-2.44006 L-20.11,-13.7688 Z " fill="#000000" fill-opacity="1.00" />			<path d="M20.0215,18.2937 L17.136,13.9653 C17.7237,12.7897 17.9909,11.5606 17.9909,10.385 L17.9909,-11.2038 C17.9909,-14.9979 14.9984,-19.5935 8.31875,-19.5935 C0.997817,-19.5935 -1.72749,-14.9979 -1.72749,-11.2038 L-1.72749,10.4383 C-1.72749,14.179 0.997817,18.7746 8.31875,18.7746 C10.6699,18.7746 12.5403,18.2402 13.9832,17.3319 L14.6244,18.2937 L20.0215,18.2937 Z M8.31875,13.4309 C6.02094,13.4309 4.95219,11.5071 4.95219,10.2781 L4.95219,-11.2572 C4.95219,-12.326 6.02094,-14.2497 8.31875,-14.2497 C10.2425,-14.2497 11.3112,-12.326 11.3112,-11.2038 L11.3112,8.19399 L8.74626,8.19399 L10.8837,11.8277 C10.3493,12.6828 9.49438,13.4309 8.31875,13.4309 Z " fill="#000000" fill-opacity="1.00" />			<path d="M35.8925,-19.1125 L35.8925,10.385 C35.8925,11.5071 34.8238,13.4309 32.9,13.4309 C30.5488,13.4309 29.5335,11.5071 29.5335,10.385 L29.5335,-19.1125 L22.8537,-19.1125 L22.8537,10.4383 C22.8537,14.2324 25.5791,18.7746 32.9,18.7746 C39.5797,18.7746 42.5722,14.2324 42.5722,10.4383 L42.5722,-19.1125 L35.8925,-19.1125 Z " fill="#000000" fill-opacity="1.00" />			<path d="M63.8403,-13.7688 L63.8403,-19.1125 L47.7022,-19.1125 L47.7022,18.2937 L64.5885,18.2937 L64.5885,12.9499 L54.3819,12.9499 L54.3819,0.766195 L61.1684,0.766195 L61.1684,-4.57756 L54.3819,-4.57756 L54.3819,-13.7688 L63.8403,-13.7688 Z " fill="#000000" fill-opacity="1.00" />			<path d="M84.6275,-13.7688 L84.6275,-19.1125 L68.4894,-19.1125 L68.4894,18.2937 L85.3756,18.2937 L85.3756,12.9499 L75.169,12.9499 L75.169,0.766195 L81.9557,0.766195 L81.9557,-4.57756 L75.169,-4.57756 L75.169,-13.7688 L84.6275,-13.7688 Z " fill="#bc1012" fill-opacity="1.00" />			<path d="M-133.609,-49.6881 C-138.366,-49.6881 -142.226,-45.8278 -142.226,-41.0714 C-142.226,-36.3149 -138.366,-32.4546 -133.609,-32.4546 C-128.852,-32.4546 -124.992,-36.3149 -124.992,-41.0714 C-124.992,-45.8278 -128.852,-49.6881 -133.609,-49.6881 Z " fill="#c5e0dc" fill-opacity="1.00" />			<path d="M-133.609,-58.305 C-128.852,-58.305 -124.992,-62.1653 -124.992,-66.9217 C-124.992,-71.6782 -128.852,-75.5385 -133.609,-75.5385 C-138.366,-75.5385 -142.226,-71.6782 -142.226,-66.9217 C-142.226,-62.1653 -138.366,-58.305 -133.609,-58.305 Z " fill="#fffb8b" fill-opacity="1.00" />			<path d="M-133.609,56.7936 C-138.366,56.7936 -142.226,60.6539 -142.226,65.4104 C-142.226,70.1668 -138.366,74.027 -133.609,74.027 C-128.852,74.027 -124.992,70.1668 -124.992,65.4104 C-124.992,60.6539 -128.852,56.7936 -133.609,56.7936 Z " fill="#c5e0dc" fill-opacity="1.00" />			<path d="M-133.609,48.1768 C-128.852,48.1768 -124.992,44.3164 -124.992,39.56 C-124.992,34.8035 -128.852,30.9432 -133.609,30.9432 C-138.366,30.9432 -142.226,34.8035 -142.226,39.56 C-142.226,44.3164 -138.366,48.1768 -133.609,48.1768 Z " fill="#c5e0dc" fill-opacity="1.00" />			<path d="M-133.609,22.3265 C-128.852,22.3265 -124.992,18.4662 -124.992,13.7097 C-124.992,8.95316 -128.852,5.09285 -133.609,5.09285 C-138.366,5.09285 -142.226,8.95316 -142.226,13.7097 C-142.226,18.4662 -138.366,22.3265 -133.609,22.3265 Z " fill="#fffb8b" fill-opacity="1.00" />			<path d="M-142.226,-13.6809 C-142.226,-8.91894 -138.371,-5.06407 -133.609,-5.06407 C-128.847,-5.06407 -124.992,-8.91895 -124.992,-13.6809 C-124.992,-18.4428 -128.847,-22.2976 -133.609,-22.2976 C-138.371,-22.2976 -142.226,-18.4428 -142.226,-13.6809 Z " fill="#c5e0dc" fill-opacity="1.00" />			<path d="M130.037,-50.8261 C125.28,-50.8261 121.42,-46.9658 121.42,-42.2094 C121.42,-37.4529 125.28,-33.5926 130.037,-33.5926 C134.793,-33.5926 138.654,-37.4529 138.654,-42.2094 C138.654,-46.9658 134.793,-50.8261 130.037,-50.8261 Z " fill="#c5e0dc" fill-opacity="1.00" />			<path d="M130.037,-59.443 C134.793,-59.443 138.654,-63.3033 138.654,-68.0597 C138.654,-72.8162 134.793,-76.6765 130.037,-76.6765 C125.28,-76.6765 121.42,-72.8162 121.42,-68.0597 C121.42,-63.3033 125.28,-59.443 130.037,-59.443 Z " fill="#c5e0dc" fill-opacity="1.00" />			<path d="M130.037,55.6556 C125.28,55.6556 121.42,59.5159 121.42,64.2724 C121.42,69.0288 125.28,72.889 130.037,72.889 C134.793,72.889 138.654,69.0288 138.654,64.2724 C138.654,59.5159 134.793,55.6556 130.037,55.6556 Z " fill="#fffb8b" fill-opacity="1.00" />			<path d="M130.037,47.0389 C134.793,47.0389 138.654,43.1784 138.654,38.422 C138.654,33.6655 134.793,29.8052 130.037,29.8052 C125.28,29.8052 121.42,33.6655 121.42,38.422 C121.42,43.1784 125.28,47.0389 130.037,47.0389 Z " fill="#c5e0dc" fill-opacity="1.00" />			<path d="M130.037,21.1885 C134.793,21.1885 138.654,17.3282 138.654,12.5717 C138.654,7.81517 134.793,3.95486 130.037,3.95486 C125.28,3.95486 121.42,7.81517 121.42,12.5717 C121.42,17.3282 125.28,21.1885 130.037,21.1885 Z " fill="#c5e0dc" fill-opacity="1.00" />			<path d="M121.42,-14.8189 C121.42,-10.0569 125.275,-6.20206 130.037,-6.20206 C134.799,-6.20206 138.654,-10.0569 138.654,-14.8189 C138.654,-19.5808 134.799,-23.4356 130.037,-23.4356 C125.275,-23.4356 121.42,-19.5808 121.42,-14.8189 Z " fill="#fffb8b" fill-opacity="1.00" />			<path d="M103.951,-59.443 C108.707,-59.443 112.567,-63.3033 112.567,-68.0597 C112.567,-72.8162 108.707,-76.6765 103.951,-76.6765 C99.1943,-76.6765 95.334,-72.8162 95.334,-68.0597 C95.334,-63.3033 99.1943,-59.443 103.951,-59.443 Z " fill="#fffb8b" fill-opacity="1.00" />			<path d="M8.88035,-67.9243 C8.88035,-72.6807 5.02004,-76.541 0.263633,-76.541 C-4.49288,-76.541 -8.3532,-72.6807 -8.3532,-67.9243 C-8.3532,-63.1678 -4.49288,-59.3075 0.263633,-59.3075 C5.02004,-59.3075 8.88035,-63.1678 8.88035,-67.9243 Z " fill="#c5e0dc" fill-opacity="1.00" />			<path d="M17.4972,-67.9243 C17.4972,-63.1678 21.3575,-59.3075 26.1139,-59.3075 C30.8704,-59.3075 34.7307,-63.1678 34.7307,-67.9243 C34.7307,-72.6807 30.8704,-76.541 26.1139,-76.541 C21.3575,-76.541 17.4972,-72.6807 17.4972,-67.9243 Z " fill="#fffb8b" fill-opacity="1.00" />			<path d="M43.3475,-67.9243 C43.3475,-63.1678 47.2078,-59.3075 51.9642,-59.3075 C56.7208,-59.3075 60.5809,-63.1678 60.5809,-67.9243 C60.5809,-72.6807 56.7208,-76.541 51.9642,-76.541 C47.2078,-76.541 43.3475,-72.6807 43.3475,-67.9243 Z " fill="#c5e0dc" fill-opacity="1.00" />			<path d="M68.9861,-67.9243 C68.9861,-63.1678 72.8464,-59.3075 77.6029,-59.3075 C82.3594,-59.3075 86.2198,-63.1678 86.2198,-67.9243 C86.2198,-72.6807 82.3594,-76.541 77.6029,-76.541 C72.8464,-76.541 68.9861,-72.6807 68.9861,-67.9243 Z " fill="#c5e0dc" fill-opacity="1.00" />			<path d="M-97.6014,-67.9243 C-97.6014,-72.6807 -101.462,-76.541 -106.218,-76.541 C-110.975,-76.541 -114.835,-72.6807 -114.835,-67.9243 C-114.835,-63.1678 -110.975,-59.3075 -106.218,-59.3075 C-101.462,-59.3075 -97.6014,-63.1678 -97.6014,-67.9243 Z " fill="#c5e0dc" fill-opacity="1.00" />			<path d="M-88.9846,-67.9243 C-88.9846,-63.1678 -85.1242,-59.3075 -80.3678,-59.3075 C-75.6113,-59.3075 -71.751,-63.1678 -71.751,-67.9243 C-71.751,-72.6807 -75.6113,-76.541 -80.3678,-76.541 C-85.1242,-76.541 -88.9846,-72.6807 -88.9846,-67.9243 Z " fill="#c5e0dc" fill-opacity="1.00" />			<path d="M-63.1343,-67.9243 C-63.1343,-63.1678 -59.274,-59.3075 -54.5175,-59.3075 C-49.7611,-59.3075 -45.9006,-63.1678 -45.9006,-67.9243 C-45.9006,-72.6807 -49.7611,-76.541 -54.5175,-76.541 C-59.274,-76.541 -63.1343,-72.6807 -63.1343,-67.9243 Z " fill="#fffb8b" fill-opacity="1.00" />			<path d="M-27.127,-76.541 C-31.8888,-76.541 -35.7437,-72.6862 -35.7437,-67.9243 C-35.7437,-63.1623 -31.8888,-59.3075 -27.127,-59.3075 C-22.365,-59.3075 -18.5102,-63.1623 -18.5102,-67.9243 C-18.5102,-72.6862 -22.365,-76.541 -27.127,-76.541 Z " fill="#c5e0dc" fill-opacity="1.00" />			<path d="M103.951,73.8916 C108.707,73.8916 112.567,70.0313 112.567,65.2749 C112.567,60.5183 108.707,56.658 103.951,56.658 C99.1943,56.658 95.334,60.5183 95.334,65.2749 C95.334,70.0313 99.1943,73.8916 103.951,73.8916 Z " fill="#c5e0dc" fill-opacity="1.00" />			<path d="M8.88035,65.4102 C8.88035,60.6538 5.02004,56.7935 0.263633,56.7935 C-4.49288,56.7935 -8.3532,60.6538 -8.3532,65.4102 C-8.3532,70.1667 -4.49288,74.027 0.263633,74.027 C5.02004,74.027 8.88035,70.1667 8.88035,65.4102 Z " fill="#c5e0dc" fill-opacity="1.00" />			<path d="M17.4972,65.4102 C17.4972,70.1667 21.3575,74.027 26.1139,74.027 C30.8704,74.027 34.7307,70.1667 34.7307,65.4102 C34.7307,60.6538 30.8704,56.7935 26.1139,56.7935 C21.3575,56.7935 17.4972,60.6538 17.4972,65.4102 Z " fill="#c5e0dc" fill-opacity="1.00" />			<path d="M43.3475,65.4102 C43.3475,70.1667 47.2078,74.027 51.9642,74.027 C56.7208,74.027 60.5809,70.1667 60.5809,65.4102 C60.5809,60.6538 56.7208,56.7935 51.9642,56.7935 C47.2078,56.7935 43.3475,60.6538 43.3475,65.4102 Z " fill="#fffb8b" fill-opacity="1.00" />			<path d="M68.9861,65.4102 C68.9861,70.1667 72.8464,74.027 77.6029,74.027 C82.3594,74.027 86.2198,70.1667 86.2198,65.4102 C86.2198,60.6538 82.3594,56.7935 77.6029,56.7935 C72.8464,56.7935 68.9861,60.6538 68.9861,65.4102 Z " fill="#c5e0dc" fill-opacity="1.00" />			<path d="M-97.6014,65.4102 C-97.6014,60.6538 -101.462,56.7935 -106.218,56.7935 C-110.975,56.7935 -114.835,60.6538 -114.835,65.4102 C-114.835,70.1667 -110.975,74.027 -106.218,74.027 C-101.462,74.027 -97.6014,70.1667 -97.6014,65.4102 Z " fill="#fffb8b" fill-opacity="1.00" />			<path d="M-88.9846,65.4102 C-88.9846,70.1667 -85.1242,74.027 -80.3678,74.027 C-75.6113,74.027 -71.751,70.1667 -71.751,65.4102 C-71.751,60.6538 -75.6113,56.7935 -80.3678,56.7935 C-85.1242,56.7935 -88.9846,60.6538 -88.9846,65.4102 Z " fill="#c5e0dc" fill-opacity="1.00" />			<path d="M-63.1343,65.4102 C-63.1343,70.1667 -59.274,74.027 -54.5175,74.027 C-49.7611,74.027 -45.9006,70.1667 -45.9006,65.4102 C-45.9006,60.6538 -49.7611,56.7935 -54.5175,56.7935 C-59.274,56.7935 -63.1343,60.6538 -63.1343,65.4102 Z " fill="#c5e0dc" fill-opacity="1.00" />			<path d="M-27.127,56.7935 C-31.8888,56.7935 -35.7437,60.6484 -35.7437,65.4102 C-35.7437,70.1722 -31.8888,74.027 -27.127,74.027 C-22.365,74.027 -18.5102,70.1722 -18.5102,65.4102 C-18.5102,60.6484 -22.365,56.7935 -27.127,56.7935 Z " fill="#fffb8b" fill-opacity="1.00" />		</g>	</svg>